<?xml version="1.0" encoding="UTF-8"?> <svg xmlns="http://www.w3.org/2000/svg" width="50" height="50" viewBox="0 0 50 50" fill="none"><g clip-path="url(#clip0_4415_112446)"><path d="M25.0001 44.5312C24.8215 44.5312 24.6502 44.4603 24.5239 44.334C24.3976 44.2077 24.3266 44.0364 24.3266 43.8578C24.3266 43.6791 24.3976 43.5078 24.5239 43.3815C24.6502 43.2552 24.8215 43.1843 25.0001 43.1843C28.5966 43.1843 32.1123 42.1178 35.1027 40.1197C38.0931 38.1216 40.4238 35.2816 41.8001 31.9588C43.1764 28.6361 43.5365 24.9798 42.8349 21.4524C42.1332 17.925 40.4014 14.6849 37.8583 12.1418C35.3152 9.59867 32.075 7.86678 28.5477 7.16514C25.0203 6.46349 21.364 6.8236 18.0413 8.19993C14.7186 9.57625 11.8786 11.907 9.88051 14.8974C7.88241 17.8877 6.81593 21.4035 6.81593 25C6.79679 29.0871 8.17419 33.0582 10.7201 36.2555C10.7752 36.3249 10.8161 36.4044 10.8405 36.4895C10.8649 36.5746 10.8722 36.6638 10.8621 36.7517C10.852 36.8397 10.8246 36.9248 10.7816 37.0022C10.7385 37.0796 10.6807 37.1478 10.6112 37.2028C10.5418 37.2578 10.4623 37.2986 10.3771 37.3228C10.2919 37.347 10.2028 37.3541 10.1148 37.3439C10.0268 37.3336 9.94176 37.3061 9.86444 37.2629C9.78713 37.2197 9.71909 37.1617 9.66423 37.0922C6.92893 33.6572 5.44881 29.391 5.46895 25C5.46895 19.82 7.52669 14.8521 11.1895 11.1893C14.8523 7.5265 19.8201 5.46875 25.0001 5.46875C30.1801 5.46875 35.1479 7.5265 38.8107 11.1893C42.4735 14.8521 44.5312 19.82 44.5312 25C44.5303 30.1797 42.4722 35.147 38.8096 38.8096C35.147 42.4722 30.1798 44.5303 25.0001 44.5312V44.5312Z" fill="#0079FF"></path><path d="M25 37.5C22.5277 37.5 20.111 36.7669 18.0554 35.3934C15.9998 34.0199 14.3976 32.0676 13.4515 29.7835C12.5054 27.4995 12.2579 24.9861 12.7402 22.5614C13.2225 20.1366 14.413 17.9093 16.1612 16.1612C17.9093 14.413 20.1366 13.2225 22.5614 12.7402C24.9861 12.2579 27.4995 12.5054 29.7835 13.4515C32.0676 14.3976 34.0199 15.9998 35.3934 18.0554C36.7669 20.111 37.5 22.5277 37.5 25C37.4963 28.3141 36.1781 31.4913 33.8347 33.8347C31.4913 36.1781 28.3141 37.4963 25 37.5ZM25 13.8636C22.7974 13.8636 20.6443 14.5168 18.813 15.7405C16.9816 16.9641 15.5542 18.7034 14.7113 20.7383C13.8685 22.7732 13.6479 25.0124 14.0776 27.1726C14.5073 29.3328 15.568 31.3172 17.1254 32.8746C18.6829 34.432 20.6672 35.4927 22.8274 35.9224C24.9876 36.3521 27.2268 36.1315 29.2617 35.2887C31.2966 34.4458 33.0359 33.0184 34.2595 31.187C35.4832 29.3557 36.1364 27.2026 36.1364 25C36.1331 22.0475 34.9587 19.2168 32.871 17.129C30.7832 15.0413 27.9525 13.8669 25 13.8636V13.8636Z" fill="#0079FF"></path><path d="M47.4187 44.5312H-0.108693C-0.287052 44.5312 -0.458091 44.4608 -0.58421 44.3355C-0.710329 44.2102 -0.781202 44.0403 -0.78125 43.8632V36.7371C-0.781202 36.5599 -0.710329 36.39 -0.58421 36.2648C-0.458091 36.1395 -0.287052 36.0691 -0.108693 36.069H25.0001C25.1785 36.069 25.3495 36.1394 25.4757 36.2647C25.6018 36.39 25.6727 36.5599 25.6727 36.7371C25.6727 36.9143 25.6018 37.0842 25.4757 37.2095C25.3495 37.3348 25.1785 37.4052 25.0001 37.4052H0.563864V43.1951H47.0824L49.2682 40.3001L47.0824 37.4052H39.7876C39.6092 37.4052 39.4382 37.3348 39.312 37.2095C39.1859 37.0842 39.115 36.9143 39.115 36.7371C39.115 36.5599 39.1859 36.39 39.312 36.2647C39.4382 36.1394 39.6092 36.069 39.7876 36.069H47.4187C47.523 36.0691 47.6259 36.0932 47.7192 36.1395C47.8126 36.1859 47.8938 36.2532 47.9564 36.3361L50.6466 39.8991C50.734 40.0148 50.7813 40.1555 50.7813 40.3001C50.7813 40.4448 50.734 40.5855 50.6466 40.7012L47.9564 44.2642C47.8938 44.3471 47.8126 44.4144 47.7192 44.4607C47.6259 44.5071 47.523 44.5312 47.4187 44.5312V44.5312ZM10.6522 29.3884C10.4994 29.3882 10.3512 29.3365 10.2319 29.2418L5.74816 25.6787C5.6786 25.6241 5.62059 25.5564 5.57749 25.4794C5.53439 25.4024 5.50703 25.3177 5.497 25.2302C5.48697 25.1427 5.49446 25.0541 5.51905 24.9695C5.54363 24.8848 5.58481 24.8059 5.64024 24.7371C5.69566 24.6684 5.76422 24.6112 5.84198 24.5688C5.91974 24.5265 6.00516 24.4998 6.09332 24.4904C6.18149 24.481 6.27066 24.489 6.3557 24.5139C6.44074 24.5389 6.51998 24.5803 6.58886 24.6358L10.5305 27.7682L12.8048 24.7562C12.8577 24.6859 12.9241 24.6266 13.0001 24.5817C13.0761 24.5369 13.1603 24.5074 13.2479 24.4949C13.3354 24.4824 13.4245 24.4872 13.5102 24.509C13.5959 24.5308 13.6764 24.5692 13.7471 24.6219C13.8178 24.6747 13.8773 24.7408 13.9223 24.8164C13.9673 24.892 13.9968 24.9757 14.0091 25.0627C14.0215 25.1497 14.0165 25.2382 13.9943 25.3232C13.9722 25.4083 13.9334 25.4882 13.8801 25.5583L11.1899 29.1213C11.1359 29.1928 11.0681 29.2529 10.9903 29.2978C10.9125 29.3428 10.8264 29.3718 10.7372 29.3831C10.709 29.3866 10.6806 29.3883 10.6522 29.3884ZM35.388 20.5682C35.3489 20.5683 35.31 20.5649 35.2715 20.5582C35.0959 20.5278 34.9395 20.4293 34.8369 20.2845C34.7343 20.1396 34.6937 19.9603 34.7242 19.7857L35.4931 15.3981C35.5086 15.3099 35.5418 15.2256 35.5907 15.1504C35.6396 15.0752 35.7032 15.0105 35.7777 14.9601C35.8518 14.9092 35.9357 14.8739 36.0241 14.8564C36.1125 14.8389 36.2036 14.8396 36.2917 14.8583L41.9148 16.0109C42.0012 16.0286 42.0834 16.063 42.1564 16.1123C42.2295 16.1615 42.2921 16.2246 42.3407 16.2978C42.3892 16.3711 42.4228 16.4531 42.4394 16.5393C42.456 16.6254 42.4554 16.714 42.4376 16.7999C42.4197 16.8858 42.3851 16.9673 42.3355 17.0399C42.2859 17.1125 42.2225 17.1747 42.1487 17.2229C42.075 17.2712 41.9924 17.3045 41.9056 17.321C41.8189 17.3375 41.7298 17.3369 41.6433 17.3192L36.6998 16.3062L36.05 20.0145C36.0228 20.1694 35.9415 20.3098 35.8204 20.411C35.6994 20.5123 35.5462 20.5679 35.388 20.5682V20.5682ZM32.1741 25.8253C32.0846 25.8249 31.9962 25.8067 31.914 25.7718C31.8339 25.7379 31.7609 25.6895 31.6986 25.6292C31.6038 25.5357 31.5395 25.4161 31.5139 25.2859C31.4883 25.1557 31.5026 25.0209 31.5549 24.8989C31.5881 24.8189 31.6368 24.7462 31.6985 24.685C31.7601 24.6238 31.8334 24.5755 31.914 24.5427C32.0057 24.5045 32.1048 24.487 32.2042 24.4914C32.3035 24.4959 32.4006 24.5222 32.4885 24.5685C32.5764 24.6147 32.6528 24.6798 32.7123 24.759C32.7717 24.8381 32.8128 24.9294 32.8324 25.0263C32.8521 25.1231 32.8498 25.2231 32.8258 25.319C32.8018 25.4148 32.7567 25.5042 32.6937 25.5807C32.6307 25.6571 32.5514 25.7187 32.4616 25.761C32.3717 25.8033 32.2735 25.8253 32.1741 25.8253V25.8253ZM25.0001 32.3099C24.9917 32.2226 25.0009 32.1346 25.0272 32.0509C25.0534 31.9672 25.0961 31.8895 25.1528 31.8223C25.2095 31.7552 25.2791 31.6999 25.3575 31.6597C25.436 31.6196 25.5217 31.5953 25.6096 31.5883V31.5883C25.6975 31.58 25.7862 31.5892 25.8705 31.6153C25.9548 31.6413 26.033 31.6838 26.1006 31.7402C26.1683 31.7966 26.2239 31.8657 26.2644 31.9437C26.3049 32.0216 26.3294 32.1067 26.3365 32.1942C26.3447 32.2815 26.3354 32.3695 26.3091 32.4533C26.2828 32.537 26.24 32.6146 26.1832 32.6818C26.1265 32.7489 26.0568 32.8042 25.9783 32.8443C25.8998 32.8845 25.8141 32.9088 25.7261 32.9157V32.9157C25.7086 32.9157 25.6902 32.9244 25.6639 32.9244C25.4959 32.923 25.3346 32.859 25.2118 32.7453C25.0889 32.6315 25.0134 32.4762 25.0001 32.3099ZM22.866 32.6574C22.695 32.6098 22.5499 32.4968 22.4624 32.3433C22.3749 32.1898 22.3522 32.0081 22.3992 31.8379C22.4224 31.7535 22.4623 31.6745 22.5164 31.6055C22.5705 31.5365 22.6379 31.4788 22.7146 31.4357C22.7912 31.3926 22.8758 31.3651 22.9632 31.3546C23.0507 31.3442 23.1394 31.351 23.2241 31.3747V31.3747C23.3091 31.3979 23.3886 31.4374 23.4582 31.4912C23.5277 31.5449 23.5858 31.6118 23.6292 31.688C23.6726 31.7641 23.7003 31.8481 23.7109 31.935C23.7215 32.0218 23.7147 32.1099 23.6909 32.1942V32.1942C23.652 32.3349 23.5678 32.459 23.451 32.5474C23.3342 32.6359 23.1915 32.6839 23.0446 32.6839V32.6839C22.984 32.6845 22.9237 32.6755 22.866 32.6574V32.6574ZM27.6001 31.8379C27.56 31.7596 27.5358 31.6741 27.5289 31.5864C27.5221 31.4988 27.5327 31.4106 27.5602 31.327C27.5877 31.2434 27.6315 31.166 27.6892 31.0993C27.7468 31.0326 27.8171 30.9778 27.8961 30.9381V30.9381C28.0571 30.8612 28.242 30.8499 28.4113 30.9064C28.5806 30.963 28.7209 31.0829 28.8025 31.2408V31.2408C28.8421 31.319 28.8657 31.4044 28.8718 31.4918C28.8778 31.5792 28.8663 31.6669 28.8378 31.7498C28.8094 31.8328 28.7646 31.9092 28.706 31.9748C28.6475 32.0403 28.5764 32.0936 28.4969 32.1315V32.1315C28.4064 32.1812 28.3042 32.2059 28.2009 32.2029V32.2029C28.0764 32.2038 27.9542 32.1701 27.848 32.1056C27.7419 32.0411 27.656 31.9484 27.6001 31.8379V31.8379ZM20.2834 31.3834C20.1407 31.2772 20.0464 31.119 20.0211 30.9436C19.9958 30.7682 20.0417 30.5901 20.1486 30.4483V30.4483C20.2569 30.3084 20.416 30.216 20.5919 30.1911C20.7678 30.1661 20.9466 30.2105 21.09 30.3148C21.2331 30.4227 21.3276 30.5824 21.3528 30.7591C21.3781 30.9359 21.3321 31.1154 21.2248 31.2586V31.2586C21.1609 31.3396 21.0791 31.405 20.9857 31.4498C20.8923 31.4946 20.7899 31.5176 20.6862 31.5169C20.5408 31.5177 20.3993 31.4707 20.2834 31.3834ZM29.8516 30.4483C29.7858 30.3896 29.7323 30.3184 29.6943 30.239C29.6563 30.1596 29.6346 30.0735 29.6303 29.9856C29.6261 29.8978 29.6394 29.81 29.6696 29.7273C29.6998 29.6447 29.7462 29.5688 29.8061 29.504C29.928 29.3751 30.0962 29.299 30.2742 29.2924C30.4522 29.2857 30.6257 29.3489 30.7571 29.4684C30.8861 29.5876 30.9629 29.7522 30.9713 29.9269C30.9796 30.1017 30.9188 30.2728 30.8018 30.4035V30.4035C30.7388 30.4739 30.6615 30.5301 30.575 30.5685C30.4885 30.6069 30.3948 30.6265 30.3 30.6262C30.1333 30.6252 29.9731 30.5617 29.8516 30.4483V30.4483ZM18.3367 29.2722C18.2429 29.1222 18.2128 28.9413 18.2532 28.7693C18.2936 28.5973 18.4011 28.4482 18.5521 28.3549V28.3549C18.6269 28.3087 18.7101 28.2775 18.797 28.2631C18.8839 28.2488 18.9728 28.2517 19.0586 28.2715C19.1444 28.2913 19.2255 28.3278 19.2971 28.3787C19.3687 28.4297 19.4295 28.4942 19.476 28.5685C19.5226 28.6428 19.554 28.7255 19.5684 28.8118C19.5828 28.8982 19.5799 28.9865 19.5599 29.0717C19.5399 29.157 19.5031 29.2374 19.4518 29.3086C19.4004 29.3797 19.3355 29.4401 19.2606 29.4862V29.4862C19.1571 29.5549 19.0357 29.5921 18.9112 29.5932C18.7959 29.5927 18.6826 29.5629 18.5821 29.5067C18.4815 29.4506 18.3971 29.3698 18.3367 29.2722V29.2722ZM31.4472 28.3549C31.3644 28.3238 31.2887 28.2766 31.2245 28.2161C31.1602 28.1557 31.1086 28.0832 31.0728 28.0028C31.037 27.9224 31.0175 27.8357 31.0157 27.7478C31.0138 27.6599 31.0295 27.5725 31.0619 27.4907V27.4907C31.1284 27.3274 31.2568 27.1967 31.4195 27.1267C31.5822 27.0567 31.7661 27.0531 31.9315 27.1167V27.1167C32.014 27.1468 32.0896 27.1929 32.1539 27.2525C32.2182 27.312 32.2699 27.3838 32.3059 27.4634C32.3419 27.5431 32.3614 27.6291 32.3635 27.7164C32.3655 27.8037 32.3499 27.8906 32.3177 27.9718V27.9718V27.9809C32.2664 28.1045 32.1794 28.2102 32.0676 28.2847C31.9558 28.3592 31.8244 28.3991 31.6898 28.3993V28.3993C31.6067 28.4019 31.5239 28.3867 31.4472 28.3549V28.3549ZM17.2876 26.609C17.2709 26.5224 17.2715 26.4334 17.2896 26.347C17.3076 26.2607 17.3426 26.1787 17.3927 26.1059C17.4428 26.033 17.5068 25.9707 17.5812 25.9226C17.6556 25.8744 17.7389 25.8414 17.8262 25.8253V25.8253C18.0008 25.7942 18.1808 25.8328 18.327 25.9328C18.4731 26.0329 18.5736 26.1862 18.6064 26.3594H18.6152C18.6454 26.5339 18.6062 26.7132 18.5059 26.8595C18.4056 27.0058 18.252 27.1077 18.0775 27.1436V27.1436C18.0358 27.1505 17.9936 27.1535 17.9514 27.1523V27.1523C17.7943 27.1529 17.642 27.0989 17.5208 26.9997C17.3996 26.9005 17.3171 26.7623 17.2876 26.6091L17.2876 26.609ZM17.8174 24.5248C17.6429 24.4922 17.4884 24.3925 17.3876 24.2474C17.2867 24.1022 17.2476 23.9234 17.2788 23.7497C17.2946 23.6637 17.3273 23.5815 17.375 23.508C17.4228 23.4346 17.4847 23.3712 17.5572 23.3215C17.6297 23.2718 17.7114 23.2369 17.7975 23.2186C17.8836 23.2004 17.9725 23.1992 18.0591 23.2152V23.2152C18.1463 23.2303 18.2297 23.2623 18.3044 23.3095C18.3792 23.3566 18.4438 23.418 18.4946 23.49C18.5455 23.5619 18.5815 23.6432 18.6007 23.7291C18.6199 23.8149 18.6218 23.9037 18.6064 23.9903V23.9903C18.5775 24.1445 18.4954 24.284 18.3743 24.3848C18.2532 24.4856 18.1006 24.5414 17.9426 24.5426V24.5426C17.9004 24.5404 17.8585 24.5344 17.8174 24.5248V24.5248ZM31.0531 22.7877C31.019 22.7066 31.0016 22.6195 31.0022 22.5315C31.0027 22.4436 31.0211 22.3567 31.0563 22.276C31.0915 22.1953 31.1426 22.1225 31.2068 22.0619C31.271 22.0013 31.3468 21.9543 31.4297 21.9235V21.9235C31.5114 21.89 31.599 21.8731 31.6874 21.8739C31.7758 21.8747 31.8631 21.8931 31.9442 21.928C32.0253 21.9629 32.0985 22.0137 32.1595 22.0772C32.2205 22.1408 32.268 22.2158 32.2993 22.298C32.3634 22.4622 32.3598 22.6449 32.2894 22.8066C32.2189 22.9682 32.0872 23.0958 31.9227 23.1618V23.1618C31.8432 23.1946 31.7574 23.2099 31.6714 23.2065V23.2065C31.538 23.2061 31.4078 23.166 31.2976 23.0914C31.1873 23.0167 31.1022 22.9109 31.0531 22.7877V22.7877ZM18.5346 21.9948C18.4592 21.9492 18.3936 21.8894 18.3415 21.8186C18.2894 21.7478 18.2518 21.6675 18.231 21.5823C18.2102 21.4971 18.2065 21.4087 18.2201 21.3221C18.2337 21.2354 18.2644 21.1523 18.3104 21.0775C18.4046 20.9281 18.5538 20.8212 18.7263 20.7796C18.8987 20.7379 19.0807 20.765 19.2334 20.8548V20.8548C19.3096 20.8997 19.376 20.9592 19.4286 21.0299C19.4813 21.1006 19.5192 21.1811 19.5401 21.2665C19.561 21.352 19.5644 21.4408 19.5503 21.5276C19.5361 21.6144 19.5046 21.6976 19.4576 21.7721V21.7721C19.399 21.8711 19.3151 21.9529 19.2143 22.0093C19.1136 22.0657 18.9996 22.0946 18.884 22.0931V22.0931C18.7603 22.0952 18.6388 22.061 18.5346 21.9948V21.9948ZM29.7797 20.7744C29.7202 20.7107 29.6738 20.6359 29.6434 20.5544C29.6129 20.4729 29.599 20.3863 29.6023 20.2994C29.6057 20.2125 29.6262 20.1272 29.6628 20.0482C29.6994 19.9692 29.7513 19.8982 29.8156 19.8392V19.8392C29.8796 19.7781 29.9553 19.7304 30.0382 19.6991C30.1212 19.6677 30.2096 19.6532 30.2983 19.6565C30.387 19.6598 30.4741 19.6809 30.5544 19.7184C30.6348 19.7559 30.7066 19.8091 30.7658 19.8749V19.8749C30.886 20.0053 30.9496 20.1776 30.9429 20.3543C30.9362 20.531 30.8597 20.698 30.7299 20.8191V20.8191C30.6041 20.9313 30.4418 20.9944 30.2728 20.997V20.997C30.1793 20.9974 30.0869 20.9777 30.0018 20.9393C29.9167 20.9008 29.841 20.8446 29.7798 20.7744H29.7797ZM20.1214 19.8927C20.0678 19.8231 20.0285 19.7437 20.0058 19.659C19.9832 19.5743 19.9775 19.486 19.9893 19.3992C20.001 19.3123 20.0298 19.2286 20.0741 19.1528C20.1185 19.0771 20.1774 19.0107 20.2475 18.9576C20.3176 18.9043 20.3975 18.8652 20.4827 18.8426C20.5679 18.82 20.6568 18.8143 20.7442 18.8259C20.8317 18.8374 20.9159 18.866 20.9923 18.9099C21.0686 18.9539 21.1354 19.0123 21.189 19.082V19.082C21.2426 19.1516 21.2818 19.2311 21.3045 19.3158C21.3272 19.4005 21.3328 19.4888 21.3211 19.5757C21.3094 19.6626 21.2806 19.7464 21.2362 19.8222C21.1919 19.898 21.133 19.9644 21.0629 20.0176V20.0176C20.9428 20.1038 20.7985 20.1505 20.6503 20.1511V20.1511C20.5481 20.1514 20.4472 20.1283 20.3554 20.0835C20.2637 20.0387 20.1836 19.9734 20.1214 19.8927H20.1214ZM27.8698 19.3582C27.7903 19.3203 27.7192 19.267 27.6606 19.2014C27.6021 19.1359 27.5573 19.0594 27.5288 18.9765C27.5004 18.8936 27.4888 18.8058 27.4949 18.7184C27.501 18.631 27.5245 18.5457 27.5642 18.4674V18.4674C27.602 18.3881 27.6553 18.317 27.721 18.2583C27.7867 18.1995 27.8635 18.1544 27.9469 18.1254C28.0303 18.0963 28.1187 18.0841 28.207 18.0893C28.2952 18.0945 28.3815 18.117 28.4609 18.1556V18.1556C28.62 18.2363 28.741 18.3756 28.7981 18.5437C28.8552 18.7119 28.8439 18.8955 28.7665 19.0555C28.7118 19.1675 28.6264 19.262 28.5202 19.3281C28.414 19.3943 28.2912 19.4294 28.1658 19.4295V19.4295C28.063 19.4283 27.9618 19.4039 27.8699 19.3582H27.8698ZM22.3545 18.4944C22.3072 18.3232 22.3295 18.1403 22.4167 17.9853C22.5039 17.8303 22.6489 17.7156 22.8204 17.6658V17.6658C22.9929 17.6199 23.1765 17.6427 23.3324 17.7292C23.4882 17.8157 23.6039 17.9591 23.655 18.129V18.129C23.702 18.2991 23.6793 18.4809 23.5919 18.6344C23.5044 18.788 23.3593 18.9009 23.1882 18.9484C23.127 18.9662 23.0636 18.9753 22.9999 18.9754C22.8547 18.9744 22.7136 18.9272 22.5974 18.8406C22.4812 18.754 22.3961 18.6326 22.3545 18.4944V18.4944ZM25.5649 18.7258C25.4766 18.7177 25.3908 18.6923 25.3123 18.6512C25.2339 18.6101 25.1643 18.5541 25.1077 18.4862C25.0511 18.4184 25.0085 18.3402 24.9824 18.256C24.9563 18.1718 24.9471 18.0833 24.9554 17.9956V17.9956C24.9727 17.8203 25.0584 17.6588 25.1941 17.5456C25.3298 17.4323 25.5047 17.3764 25.6814 17.3897V17.3897C25.7698 17.3978 25.8556 17.4231 25.9341 17.4642C26.0125 17.5053 26.082 17.5614 26.1387 17.6292C26.1953 17.6971 26.2379 17.7753 26.264 17.8595C26.2901 17.9437 26.2993 18.0322 26.2909 18.12V18.12C26.276 18.2847 26.1998 18.438 26.0773 18.55C25.9547 18.6621 25.7945 18.7247 25.628 18.7258H25.5649V18.7258Z" fill="#0079FF"></path><path d="M32.0318 25.7813C31.9279 25.7807 31.8251 25.7594 31.7295 25.7186C31.6364 25.6789 31.5515 25.6222 31.4791 25.5516C31.3689 25.4421 31.2942 25.3022 31.2644 25.1497C31.2346 24.9973 31.2512 24.8395 31.3121 24.6966C31.3506 24.6029 31.4073 24.5178 31.479 24.4462C31.5506 24.3746 31.6358 24.318 31.7295 24.2796C31.8361 24.2348 31.9513 24.2143 32.0668 24.2195C32.1823 24.2248 32.2952 24.2556 32.3973 24.3097C32.4995 24.3639 32.5883 24.4401 32.6575 24.5328C32.7266 24.6255 32.7743 24.7324 32.7971 24.8458C32.82 24.9591 32.8173 25.0762 32.7894 25.1884C32.7616 25.3007 32.7091 25.4053 32.6359 25.4948C32.5627 25.5843 32.4705 25.6564 32.366 25.706C32.2616 25.7555 32.1474 25.7812 32.0318 25.7813V25.7813Z" fill="#0079FF"></path></g><defs><clipPath id="clip0_4415_112446"><rect width="50" height="50" fill="white"></rect></clipPath></defs></svg> 