<?xml version="1.0" encoding="UTF-8"?> <svg xmlns="http://www.w3.org/2000/svg" width="50" height="50" viewBox="0 0 50 50" fill="none"><path d="M43.768 35.6211L39.0625 34.5344V32.5695C40.2047 31.5445 41.0086 30.1555 41.2898 28.5828C43.3195 26.9625 44.5312 24.4789 44.5312 21.875V18.9148C44.5312 17.7 43.6633 16.6844 42.5148 16.4547C40.5906 13.082 36.7773 11.232 32.8891 11.8344C29.5328 12.3516 26.7133 14.7773 25.5625 17.9117C25.2375 17.1734 24.5742 16.6164 23.7648 16.4547C21.8414 13.082 18.0297 11.232 14.1391 11.8344C10.0617 12.4633 6.76953 15.9047 6.31016 20.018C6.01406 22.6625 6.85156 25.2797 8.59375 27.2641V27.3438C8.59375 29.4195 9.50313 31.282 10.9375 32.5695V34.5344L6.23203 35.6211C3.02266 36.3609 0.78125 39.1781 0.78125 42.4719V49.2188H29.6875H30.4688H49.2188V42.4719C49.2188 39.1781 46.9773 36.3609 43.768 35.6211ZM28.2469 36.4742L28.5906 37.6773C28.2383 37.2992 27.8406 36.9633 27.4086 36.6688L28.2469 36.4742ZM30.2766 36.0039L33.1242 38.2812L30.8969 40.0625L29.7711 36.1211L30.2766 36.0039ZM34.375 39.2812L35.9047 40.5055L35.132 42.0492L35.8336 47.6562H32.9164L33.618 42.0492L32.8453 40.5055L34.375 39.2812ZM35.6258 38.2812L38.4742 36.0031L38.9789 36.1195L37.8523 40.0625L35.6258 38.2812ZM37.5 34.7805L34.375 37.2813L31.25 34.7805V33.6328C32.193 34.1031 33.2516 34.375 34.375 34.375C35.4984 34.375 36.557 34.1039 37.5 33.6328V34.7805ZM39.8438 27.3438C39.8438 30.3586 37.3898 32.8125 34.375 32.8125C31.3602 32.8125 28.9062 30.3586 28.9062 27.3438V23.4375H33.9469C34.9359 23.4375 35.8648 23.0523 36.5641 22.3531L37.3789 21.5383L37.5461 21.7891C38.0859 22.6 38.9133 23.1539 39.8438 23.3539V27.3438ZM26.6133 20.1914C26.9953 16.7664 29.7344 13.9016 33.1266 13.3781C36.4953 12.857 39.7859 14.5336 41.3266 17.543L41.5453 17.9688H42.0227C42.5445 17.9688 42.9688 18.393 42.9688 18.9148V21.875C42.9688 23.4867 42.4 25.043 41.4062 26.2812V21.875H40.625C39.9086 21.875 39.243 21.5188 38.8461 20.9227L37.6219 19.0859L35.4594 21.2484C35.0547 21.6523 34.5187 21.875 33.9469 21.875H27.3438V24.4695C26.7117 23.1562 26.4469 21.6797 26.6133 20.1914ZM25.4867 24.057C25.8789 25.2297 26.5117 26.3164 27.3438 27.2641V27.3438C27.3438 29.4195 28.2531 31.282 29.6875 32.5695V34.5344L25.0008 35.6164L20.3125 34.5344V32.5695C21.4547 31.5445 22.2586 30.1555 22.5398 28.5828C23.9906 27.425 25.018 25.8273 25.4867 24.057ZM11.5258 36.0031L14.3742 38.2812L12.1469 40.0625L11.0203 36.1195L11.5258 36.0031ZM15.625 39.2812L17.1547 40.5055L16.382 42.0492L17.0836 47.6562H14.1664L14.868 42.0492L14.0953 40.5055L15.625 39.2812ZM16.8758 38.2812L19.7242 36.0031L20.2289 36.1195L19.1023 40.0625L16.8758 38.2812ZM7.86328 20.1914C8.24531 16.7664 10.9844 13.9016 14.3766 13.3781C17.7461 12.857 21.0359 14.5336 22.5766 17.543L22.7953 17.9688H23.2727C23.7945 17.9688 24.2188 18.393 24.2188 18.9148V21.875C24.2188 23.4867 23.65 25.043 22.6562 26.2812V21.875H21.875C21.1586 21.875 20.493 21.5188 20.0961 20.9227L18.8719 19.0859L16.7094 21.2484C16.3047 21.6523 15.7687 21.875 15.1969 21.875H8.59375V24.4695C7.96172 23.1562 7.69687 21.6797 7.86328 20.1914ZM10.1562 27.3438V23.4375H15.1969C16.1859 23.4375 17.1148 23.0523 17.8141 22.3531L18.6289 21.5383L18.7961 21.7891C19.3359 22.6 20.1633 23.1539 21.0938 23.3539V27.3438C21.0938 30.3586 18.6398 32.8125 15.625 32.8125C12.6102 32.8125 10.1562 30.3586 10.1562 27.3438ZM15.625 34.375C16.7484 34.375 17.807 34.1039 18.75 33.6328V34.7797L15.625 37.2805L12.5 34.7797V33.6328C13.443 34.1039 14.5016 34.375 15.625 34.375ZM2.34375 42.4719C2.34375 39.9102 4.08672 37.7187 6.58281 37.1437L9.49609 36.4711L11.2898 42.7492L12.8469 41.5031L13.2578 42.325L12.5914 47.6562H7.03125V44.5312H5.46875V47.6562H2.34375V42.4719ZM28.9062 47.6562H25.7812V44.5312H24.2188V47.6562H18.6586L17.993 42.3258L18.4039 41.5039L19.9609 42.75L21.7547 36.4719L24.668 37.1445C27.1633 37.7187 28.9062 39.9102 28.9062 42.4719V47.6562ZM30.4664 42.4086L31.5977 41.5039L32.0086 42.3258L31.3414 47.6562H30.4688V42.4719C30.4688 42.4508 30.4664 42.4305 30.4664 42.4086ZM47.6562 47.6562H44.5312V44.5312H42.9688V47.6562H37.4086L36.743 42.3258L37.1539 41.5039L38.7109 42.75L40.5047 36.4719L43.418 37.1445C45.9133 37.7187 47.6562 39.9102 47.6562 42.4719V47.6562ZM17.9688 10.1562H18.8977C19.9922 10.1562 21.0586 9.77031 21.8992 9.06953L25 6.48594L28.1008 9.06953C28.9414 9.77031 30.007 10.1562 31.1023 10.1562H32.0312C34.6164 10.1562 36.7188 8.05391 36.7188 5.46875C36.7188 2.88359 34.6164 0.78125 32.0312 0.78125H31.1023C30.0078 0.78125 28.9414 1.16719 28.1008 1.86797L25 4.45156L21.8992 1.86797C21.0586 1.16719 19.993 0.78125 18.8977 0.78125H17.9688C15.3836 0.78125 13.2812 2.88359 13.2812 5.46875C13.2812 8.05391 15.3836 10.1562 17.9688 10.1562ZM29.1016 3.06875C29.6617 2.60078 30.3719 2.34375 31.1023 2.34375H32.0312C33.7547 2.34375 35.1562 3.74531 35.1562 5.46875C35.1562 7.19219 33.7547 8.59375 32.0312 8.59375H31.1023C30.3719 8.59375 29.6617 8.33672 29.1016 7.86875L26.2211 5.46875L29.1016 3.06875ZM17.9688 2.34375H18.8977C19.6281 2.34375 20.3383 2.60078 20.8984 3.06875L23.7797 5.46875L20.8984 7.86875C20.3383 8.33672 19.6281 8.59375 18.8977 8.59375H17.9688C16.2453 8.59375 14.8438 7.19219 14.8438 5.46875C14.8438 3.74531 16.2453 2.34375 17.9688 2.34375Z" fill="#0079FF"></path><path d="M40.625 0.78125H39.0625V2.34375H40.625V0.78125Z" fill="#0079FF"></path><path d="M40.625 3.90625H39.0625V5.46875H40.625V3.90625Z" fill="#0079FF"></path><path d="M42.1875 2.34375H40.625V3.90625H42.1875V2.34375Z" fill="#0079FF"></path><path d="M39.0625 2.34375H37.5V3.90625H39.0625V2.34375Z" fill="#0079FF"></path><path d="M45.3125 5.46875H43.75V7.03125H45.3125V5.46875Z" fill="#0079FF"></path><path d="M45.3125 8.59375H43.75V10.1562H45.3125V8.59375Z" fill="#0079FF"></path><path d="M46.875 7.03125H45.3125V8.59375H46.875V7.03125Z" fill="#0079FF"></path><path d="M43.75 7.03125H42.1875V8.59375H43.75V7.03125Z" fill="#0079FF"></path><path d="M5.46875 7.03125H3.90625V8.59375H5.46875V7.03125Z" fill="#0079FF"></path><path d="M5.46875 10.1562H3.90625V11.7188H5.46875V10.1562Z" fill="#0079FF"></path><path d="M7.03125 8.59375H5.46875V10.1562H7.03125V8.59375Z" fill="#0079FF"></path><path d="M3.90625 8.59375H2.34375V10.1562H3.90625V8.59375Z" fill="#0079FF"></path><path d="M10.1562 2.34375H8.59375V3.90625H10.1562V2.34375Z" fill="#0079FF"></path><path d="M10.1562 5.46875H8.59375V7.03125H10.1562V5.46875Z" fill="#0079FF"></path><path d="M11.7188 3.90625H10.1562V5.46875H11.7188V3.90625Z" fill="#0079FF"></path><path d="M8.59375 3.90625H7.03125V5.46875H8.59375V3.90625Z" fill="#0079FF"></path></svg> 