<?xml version="1.0" encoding="UTF-8"?> <svg xmlns="http://www.w3.org/2000/svg" width="72" height="73" viewBox="0 0 72 73" fill="none"><g clip-path="url(#clip0_4877_117785)"><path d="M45 0.5H27C25.8065 0.5 24.6619 0.974106 23.818 1.81802C22.9741 2.66193 22.5 3.80653 22.5 5V17C22.5 18.1935 22.9741 19.3381 23.818 20.182C24.6619 21.0259 25.8065 21.5 27 21.5H45C46.1935 21.5 47.3381 21.0259 48.182 20.182C49.0259 19.3381 49.5 18.1935 49.5 17V5C49.5 3.80653 49.0259 2.66193 48.182 1.81802C47.3381 0.974106 46.1935 0.5 45 0.5V0.5ZM46.5 17C46.5 17.3978 46.342 17.7794 46.0607 18.0607C45.7794 18.342 45.3978 18.5 45 18.5H27C26.6022 18.5 26.2206 18.342 25.9393 18.0607C25.658 17.7794 25.5 17.3978 25.5 17V5C25.5 4.60218 25.658 4.22064 25.9393 3.93934C26.2206 3.65804 26.6022 3.5 27 3.5H45C45.3978 3.5 45.7794 3.65804 46.0607 3.93934C46.342 4.22064 46.5 4.60218 46.5 5V17ZM45 26H27C25.8065 26 24.6619 26.4741 23.818 27.318C22.9741 28.1619 22.5 29.3065 22.5 30.5V42.5C22.5 43.6935 22.9741 44.8381 23.818 45.682C24.6619 46.5259 25.8065 47 27 47H45C46.1935 47 47.3381 46.5259 48.182 45.682C49.0259 44.8381 49.5 43.6935 49.5 42.5V30.5C49.5 29.3065 49.0259 28.1619 48.182 27.318C47.3381 26.4741 46.1935 26 45 26ZM46.5 42.5C46.5 42.8978 46.342 43.2794 46.0607 43.5607C45.7794 43.842 45.3978 44 45 44H27C26.6022 44 26.2206 43.842 25.9393 43.5607C25.658 43.2794 25.5 42.8978 25.5 42.5V30.5C25.5 30.1022 25.658 29.7206 25.9393 29.4393C26.2206 29.158 26.6022 29 27 29H45C45.3978 29 45.7794 29.158 46.0607 29.4393C46.342 29.7206 46.5 30.1022 46.5 30.5V42.5ZM45 51.5H27C25.8065 51.5 24.6619 51.9741 23.818 52.818C22.9741 53.6619 22.5 54.8065 22.5 56V68C22.5 69.1935 22.9741 70.3381 23.818 71.182C24.6619 72.0259 25.8065 72.5 27 72.5H45C46.1935 72.5 47.3381 72.0259 48.182 71.182C49.0259 70.3381 49.5 69.1935 49.5 68V56C49.5 54.8065 49.0259 53.6619 48.182 52.818C47.3381 51.9741 46.1935 51.5 45 51.5ZM46.5 68C46.5 68.3978 46.342 68.7794 46.0607 69.0607C45.7794 69.342 45.3978 69.5 45 69.5H27C26.6022 69.5 26.2206 69.342 25.9393 69.0607C25.658 68.7794 25.5 68.3978 25.5 68V56C25.5 55.6022 25.658 55.2206 25.9393 54.9393C26.2206 54.658 26.6022 54.5 27 54.5H45C45.3978 54.5 45.7794 54.658 46.0607 54.9393C46.342 55.2206 46.5 55.6022 46.5 56V68ZM54 9.5C53.6022 9.5 53.2206 9.65804 52.9393 9.93934C52.658 10.2206 52.5 10.6022 52.5 11C52.5 11.3978 52.658 11.7794 52.9393 12.0607C53.2206 12.342 53.6022 12.5 54 12.5C68.22 12.5 70.02 30.755 58.11 34.49C58.35 34.1964 58.4698 33.8228 58.4455 33.4444C58.4211 33.066 58.2544 32.7108 57.9787 32.4504C57.7031 32.19 57.3391 32.0436 56.9599 32.0408C56.5807 32.0379 56.2145 32.1788 55.935 32.435C53.055 35.33 52.785 35.525 52.62 35.93C52.5051 36.2032 52.4737 36.5042 52.5298 36.7952C52.5859 37.0862 52.7269 37.3541 52.935 37.565C56.205 40.835 56.19 41 57 41C57.2979 41.0017 57.5896 40.9147 57.8379 40.75C58.0862 40.5853 58.2798 40.3504 58.3941 40.0752C58.5083 39.8001 58.538 39.4971 58.4794 39.205C58.4208 38.9129 58.2765 38.6448 58.065 38.435L57.375 37.76C60.6401 37.1422 63.5875 35.405 65.7095 32.8476C67.8315 30.2903 68.9951 27.073 69 23.75C69 16.46 63.42 9.5 54 9.5ZM18 38C18.3978 38 18.7794 37.842 19.0607 37.5607C19.342 37.2794 19.5 36.8978 19.5 36.5C19.5 36.1022 19.342 35.7206 19.0607 35.4393C18.7794 35.158 18.3978 35 18 35C8.49 35 3 42.05 3 49.25C3.00489 52.573 4.16855 55.7903 6.29052 58.3476C8.41249 60.905 11.3599 62.6422 14.625 63.26L13.935 63.935C13.6525 64.2175 13.4939 64.6005 13.4939 65C13.4939 65.3995 13.6525 65.7825 13.935 66.065C14.2175 66.3475 14.6005 66.5061 15 66.5061C15.3995 66.5061 15.7825 66.3475 16.065 66.065C20.685 61.43 20.685 62.555 16.065 57.935C15.7855 57.6788 15.4193 57.5379 15.0401 57.5408C14.6609 57.5437 14.2969 57.69 14.0213 57.9504C13.7456 58.2108 13.5789 58.566 13.5545 58.9444C13.5302 59.3228 13.65 59.6964 13.89 59.99C11.26 59.1657 9.02344 57.4058 7.60368 55.0435C6.18392 52.6811 5.67948 49.8802 6.18585 47.171C6.69221 44.4617 8.17424 42.0321 10.3514 40.3421C12.5286 38.652 15.2498 37.8187 18 38ZM61.935 57.935L57 62.885L55.065 60.935C54.9251 60.7951 54.7591 60.6842 54.5764 60.6085C54.3936 60.5328 54.1978 60.4939 54 60.4939C53.8022 60.4939 53.6064 60.5328 53.4236 60.6085C53.2409 60.6842 53.0749 60.7951 52.935 60.935C52.7951 61.0749 52.6842 61.2409 52.6085 61.4236C52.5328 61.6064 52.4939 61.8022 52.4939 62C52.4939 62.1978 52.5328 62.3936 52.6085 62.5764C52.6842 62.7591 52.7951 62.9251 52.935 63.065C57.87 67.985 55.935 68.165 64.065 60.065C64.3475 59.7825 64.5061 59.3995 64.5061 59C64.5061 58.6005 64.3475 58.2175 64.065 57.935C63.7825 57.6525 63.3995 57.4939 63 57.4939C62.6005 57.4939 62.2175 57.6525 61.935 57.935ZM16.065 5.435C15.7825 5.15254 15.3995 4.99386 15 4.99386C14.6005 4.99386 14.2175 5.15254 13.935 5.435C13.6525 5.71746 13.4939 6.10055 13.4939 6.5C13.4939 6.89945 13.6525 7.28254 13.935 7.565C14.535 8.15 15.765 8 7.5 8C7.10218 8 6.72064 8.15804 6.43934 8.43934C6.15804 8.72064 6 9.10218 6 9.5C6 9.89782 6.15804 10.2794 6.43934 10.5607C6.72064 10.842 7.10218 11 7.5 11C15.435 11 14.565 10.805 13.935 11.435C13.6525 11.7175 13.4939 12.1005 13.4939 12.5C13.4939 12.8995 13.6525 13.2825 13.935 13.565C14.2175 13.8475 14.6005 14.0061 15 14.0061C15.3995 14.0061 15.7825 13.8475 16.065 13.565C20.67 8.945 20.655 10.04 16.065 5.435Z" fill="#0079FF"></path><path d="M42 6.5H30C29.6022 6.5 29.2206 6.65804 28.9393 6.93934C28.658 7.22064 28.5 7.60218 28.5 8C28.5 8.39782 28.658 8.77936 28.9393 9.06066C29.2206 9.34196 29.6022 9.5 30 9.5H42C42.3978 9.5 42.7794 9.34196 43.0607 9.06066C43.342 8.77936 43.5 8.39782 43.5 8C43.5 7.60218 43.342 7.22064 43.0607 6.93934C42.7794 6.65804 42.3978 6.5 42 6.5ZM39 12.5H30C29.6022 12.5 29.2206 12.658 28.9393 12.9393C28.658 13.2206 28.5 13.6022 28.5 14C28.5 14.3978 28.658 14.7794 28.9393 15.0607C29.2206 15.342 29.6022 15.5 30 15.5H39C39.3978 15.5 39.7794 15.342 40.0607 15.0607C40.342 14.7794 40.5 14.3978 40.5 14C40.5 13.6022 40.342 13.2206 40.0607 12.9393C39.7794 12.658 39.3978 12.5 39 12.5ZM42 32H30C29.6022 32 29.2206 32.158 28.9393 32.4393C28.658 32.7206 28.5 33.1022 28.5 33.5C28.5 33.8978 28.658 34.2794 28.9393 34.5607C29.2206 34.842 29.6022 35 30 35H42C42.3978 35 42.7794 34.842 43.0607 34.5607C43.342 34.2794 43.5 33.8978 43.5 33.5C43.5 33.1022 43.342 32.7206 43.0607 32.4393C42.7794 32.158 42.3978 32 42 32ZM39 38H30C29.6022 38 29.2206 38.158 28.9393 38.4393C28.658 38.7206 28.5 39.1022 28.5 39.5C28.5 39.8978 28.658 40.2794 28.9393 40.5607C29.2206 40.842 29.6022 41 30 41H39C39.3978 41 39.7794 40.842 40.0607 40.5607C40.342 40.2794 40.5 39.8978 40.5 39.5C40.5 39.1022 40.342 38.7206 40.0607 38.4393C39.7794 38.158 39.3978 38 39 38ZM42 57.5H30C29.6022 57.5 29.2206 57.658 28.9393 57.9393C28.658 58.2206 28.5 58.6022 28.5 59C28.5 59.3978 28.658 59.7794 28.9393 60.0607C29.2206 60.342 29.6022 60.5 30 60.5H42C42.3978 60.5 42.7794 60.342 43.0607 60.0607C43.342 59.7794 43.5 59.3978 43.5 59C43.5 58.6022 43.342 58.2206 43.0607 57.9393C42.7794 57.658 42.3978 57.5 42 57.5ZM39 63.5H30C29.6022 63.5 29.2206 63.658 28.9393 63.9393C28.658 64.2206 28.5 64.6022 28.5 65C28.5 65.3978 28.658 65.7794 28.9393 66.0607C29.2206 66.342 29.6022 66.5 30 66.5H39C39.3978 66.5 39.7794 66.342 40.0607 66.0607C40.342 65.7794 40.5 65.3978 40.5 65C40.5 64.6022 40.342 64.2206 40.0607 63.9393C39.7794 63.658 39.3978 63.5 39 63.5Z" fill="#0079FF"></path></g><defs><clipPath id="clip0_4877_117785"><rect width="72" height="72" fill="white" transform="translate(0 0.5)"></rect></clipPath></defs></svg> 